<?xml version="1.0" encoding="UTF-8"?>
<!DOCTYPE svg PUBLIC "-//W3C//DTD SVG 1.1//EN" "http://www.w3.org/Graphics/SVG/1.1/DTD/svg11.dtd">
<!-- Creator: CorelDRAW -->
<svg xmlns="http://www.w3.org/2000/svg" xml:space="preserve" width="1.70666in" height="1.70666in" version="1.1" style="shape-rendering:geometricPrecision; text-rendering:geometricPrecision; image-rendering:optimizeQuality; fill-rule:evenodd; clip-rule:evenodd"
viewBox="0 0 1706.66 1706.66"
 xmlns:xlink="http://www.w3.org/1999/xlink"
 xmlns:xodm="http://www.corel.com/coreldraw/odm/2003">
 <defs>
  <style type="text/css">
   <![CDATA[
    .fil0 {fill:url(#id0)}
   ]]>
  </style>
  <linearGradient id="id0" x1="14.7143" y1="830" x2="1635.44" y2="830" gradientUnits="userSpaceOnUse">
<stop stop-color="rgba(216, 104, 56, 0.9)"/>
<stop offset="1" stop-color="rgba(255, 157, 53, 0.9)"/>
</linearGradient>
 </defs>
 <g id="Layer_x0020_1">
  <metadata id="CorelCorpID_0Corel-Layer"/>
  <path class="fil0" d="M135.58 1671.86c-92.1,-29.33 -144.47,-125.54 -144.47,-218.79l0 -786.33c0,-47.27 71.79,-47.27 71.79,0l0 786.33c0,136.37 133.78,207.32 213.44,110.87 25.46,-30.82 37.85,-71.19 37.85,-110.87l0 -1359.2c0,-64.62 52.59,-117.21 117.21,-117.21l1086.84 0c64.62,0 117.21,52.59 117.21,117.21l0 1326.84c0,143.15 -116.44,259.43 -259.57,259.43 -125.11,0 -1217.6,11.15 -1240.3,-8.28zm66.07 -124.87c-19.82,0 -35.9,-16.09 -35.9,-35.89l0 -930.07c0,-47.27 71.8,-47.27 71.8,0l0 930.07c0,19.82 -16.09,35.89 -35.9,35.89zm1269.05 -951.28l-434.04 0c-10.74,0 -19.58,-8.7 -19.58,-19.58l0 -298.19c0,-10.88 8.84,-19.58 19.58,-19.58l434.04 0c10.74,0 19.58,8.7 19.58,19.58l0 298.19c0,10.88 -8.7,19.58 -19.58,19.58zm-414.45 -39.16l394.87 0 0 -259.03 -394.87 0 0 259.03zm-200.83 -252.64l-312.74 0c-25.81,0 -25.81,-39.16 0,-39.16l312.74 0c25.72,0 25.87,39.16 0,39.16zm0 142.77l-312.74 0c-25.81,0 -25.81,-39.16 0,-39.16l312.74 0c25.72,0 25.87,39.16 0,39.16zm-44.19 142.77l-268.55 0c-25.81,0 -25.81,-39.16 0,-39.16l268.55 0c25.81,0 25.81,39.16 0,39.16zm165.48 498.89l-434.03 0c-10.88,0 -19.58,-8.84 -19.58,-19.58l0 -298.19c0,-10.87 8.7,-19.58 19.58,-19.58l434.03 0c10.74,0 19.58,8.7 19.58,19.58l0 298.19c0,10.74 -8.7,19.58 -19.58,19.58zm-414.45 -39.16l394.87 0 0 -259.03 -394.87 0 0 259.03zm908.45 32.91l-312.74 0c-25.74,0 -25.74,-39.16 0,-39.16l312.74 0c25.69,0 25.84,39.16 0,39.16zm0 -142.77l-312.74 0c-25.74,0 -25.74,-39.16 0,-39.16l312.74 0c25.69,0 25.84,39.16 0,39.16zm0 -142.91l-268.56 0c-25.77,0 -25.77,-39.16 0,-39.16l268.56 0c25.72,0 25.87,39.16 0,39.16zm-22.03 470.6l-887.23 0c-25.78,0 -25.78,-39.16 0,-39.16l887.23 0c25.74,0 25.74,39.16 0,39.16zm-62.96 180.17l-761.45 0c-25.78,0 -25.78,-39.16 0,-39.16l761.45 0c25.69,0 25.84,39.16 0,39.16z"/>
 </g>
</svg>
