<svg width="25" height="25" viewBox="0 0 25 25" fill="none" xmlns="http://www.w3.org/2000/svg">
<g clip-path="url(#clip0_294_65)">
<path d="M23.4373 19.469L23.3336 19.1143C23.0877 18.2854 22.2156 17.3987 21.3941 17.1437L18.354 16.1939C17.5295 15.9372 16.3308 16.1989 15.6995 16.786L14.5481 17.8571C10.549 16.6198 7.49676 13.3383 6.55299 9.26116L7.70448 8.19005C8.33572 7.60287 8.68317 6.4277 8.48676 5.58686L7.7606 2.48463C7.56413 1.6453 6.74116 0.711318 5.93369 0.409285L5.58746 0.278764C4.77842 -0.0233249 3.60059 0.209997 2.9694 0.797125L1.24696 2.4008C0.939311 2.68545 0.718958 3.52348 0.718847 3.52657C0.469841 8.80202 2.35534 13.9615 5.95345 17.8297C9.54273 21.6884 14.5336 23.9379 19.7974 24.0838C19.825 24.0848 20.7011 23.9295 21.0088 23.6448L22.7311 22.0427C23.3623 21.4556 23.6801 20.2977 23.4373 19.469Z" fill="url(#paint0_linear_294_65)"/>
</g>
<defs>
<linearGradient id="paint0_linear_294_65" x1="12.1747" y1="-15.7324" x2="44.1297" y2="13.0164" gradientUnits="userSpaceOnUse">
<stop stop-color="rgba(216, 104, 56, 0.9)"/>
<stop offset="1" stop-color="rgba(255, 157, 53, 0.9)"/>
</linearGradient>
<clipPath id="clip0_294_65">
<rect width="23.3862" height="23.3862" fill="white" transform="translate(0.845215) rotate(2.07125)"/>
</clipPath>
</defs>
</svg>
