<?xml version="1.0" encoding="UTF-8"?>
<!DOCTYPE svg PUBLIC "-//W3C//DTD SVG 1.1//EN" "http://www.w3.org/Graphics/SVG/1.1/DTD/svg11.dtd">
<!-- Creator: CorelDRAW -->
<svg xmlns="http://www.w3.org/2000/svg" xml:space="preserve" width="1.70666in" height="1.70666in" version="1.1" style="shape-rendering:geometricPrecision; text-rendering:geometricPrecision; image-rendering:optimizeQuality; fill-rule:evenodd; clip-rule:evenodd"
viewBox="0 0 1706.66 1706.66"
 xmlns:xlink="http://www.w3.org/1999/xlink"
 xmlns:xodm="http://www.corel.com/coreldraw/odm/2003">
 <defs>
  <style type="text/css">
   <![CDATA[
    .fil0 {fill:url(#id0)}
   ]]>
  </style>
  <linearGradient id="id0" gradientUnits="userSpaceOnUse" x1="0" y1="853.33" x2="1706.66" y2="853.33">
   <stop offset="0" style="stop-opacity:1; stop-color:#FFB800"/>
   <stop offset="1" style="stop-opacity:1; stop-color:#FF5329"/>
  </linearGradient>
 </defs>
 <g id="Layer_x0020_1">
  <metadata id="CorelCorpID_0Corel-Layer"/>
  <path class="fil0" d="M406.26 804.45l0 -287.95 -366.59 0 366.59 287.95zm852.31 -311.42l0 -223.82 -171.66 -150.67 -605.75 0c-18.21,0 -33.07,14.28 -33.07,32.06l0 686.7 404.51 317.74 405.97 -318.34 0 -343.67zm-710.23 -103.46l605.46 0.01c27.6,0 27.72,41.96 -0.15,41.96l-605.32 0c-27.66,0 -27.66,-41.97 0,-41.97zm0 174.87l549.22 0c27.62,0 27.63,41.97 0,41.97l-549.22 0c-27.66,0 -27.66,-41.97 0,-41.97zm-0.87 174.86l526.63 0c27.56,0 27.73,41.96 0,41.96l-526.63 0c-27.66,0 -27.66,-41.97 0,-41.97zm753.08 64.48l366.37 -287.28 -366.37 0 0 287.28zm-311.54 297.6l717.66 468.94 0 -1031.69 -717.66 562.74zm-237.72 27.39l-701.91 459.34 1607.88 0 -703.09 -459.43 -88.61 69.48c-7.57,5.97 -18.35,5.97 -25.94,0l-88.34 -69.39zm-337.34 -264.98l-413.95 -325.15 0 1031.7 716.51 -468.89 -302.56 -237.66z"/>
 </g>
</svg>
