<svg width="21" height="21" viewBox="0 0 21 21" fill="none" xmlns="http://www.w3.org/2000/svg">
<path d="M10.5 0C8.4233 0 6.39323 0.615814 4.66652 1.76957C2.9398 2.92332 1.59399 4.5632 0.799269 6.48182C0.0045495 8.40045 -0.203386 10.5116 0.201759 12.5484C0.606904 14.5852 1.60693 16.4562 3.07538 17.9246C4.54383 19.3931 6.41475 20.3931 8.45156 20.7982C10.4884 21.2034 12.5996 20.9955 14.5182 20.2007C16.4368 19.406 18.0767 18.0602 19.2304 16.3335C20.3842 14.6068 21 12.5767 21 10.5C20.9977 7.71594 19.8907 5.04657 17.9221 3.07794C15.9534 1.10931 13.2841 0.00231716 10.5 0ZM10.5175 16.625C10.4026 16.6256 10.2887 16.6035 10.1823 16.5601C10.0759 16.5166 9.97916 16.4527 9.8975 16.3718C9.73259 16.2085 9.63929 15.9864 9.63813 15.7544C9.63697 15.5223 9.72804 15.2993 9.89132 15.1344C10.0546 14.9695 10.2767 14.8762 10.5088 14.875H10.5175C10.7496 14.875 10.9721 14.9672 11.1362 15.1313C11.3003 15.2954 11.3925 15.5179 11.3925 15.75C11.3925 15.9821 11.3003 16.2046 11.1362 16.3687C10.9721 16.5328 10.7496 16.625 10.5175 16.625ZM12.1888 10.9419C11.9546 11.0547 11.7553 11.2288 11.612 11.4457C11.4687 11.6626 11.3868 11.9142 11.375 12.1739C11.3763 12.4099 11.2857 12.6373 11.1224 12.8078C10.9591 12.9782 10.7359 13.0785 10.5 13.0874C10.3872 13.0915 10.2746 13.0729 10.1691 13.0327C10.0635 12.9926 9.96713 12.9317 9.88555 12.8536C9.80397 12.7755 9.73887 12.6819 9.69412 12.5782C9.64937 12.4745 9.62586 12.3629 9.625 12.25C9.62286 11.6643 9.78209 11.0893 10.0852 10.5881C10.3884 10.0869 10.8237 9.67891 11.3435 9.40887C11.6668 9.23081 11.9255 8.9551 12.0827 8.62114C12.2398 8.28719 12.2874 7.9121 12.2185 7.5495C12.1503 7.20405 11.9807 6.88677 11.7313 6.63818C11.482 6.38959 11.1642 6.22097 10.8185 6.15387C10.566 6.10713 10.3062 6.11655 10.0578 6.18145C9.80927 6.24635 9.57811 6.36515 9.38069 6.52942C9.18327 6.69369 9.02442 6.89939 8.91543 7.13194C8.80643 7.36449 8.74995 7.61818 8.75 7.875C8.75 8.10706 8.65782 8.32962 8.49372 8.49372C8.32963 8.65781 8.10707 8.75 7.875 8.75C7.64294 8.75 7.42038 8.65781 7.25629 8.49372C7.09219 8.32962 7 8.10706 7 7.875C7.00022 7.25769 7.1637 6.65142 7.47386 6.11769C7.78402 5.58396 8.22983 5.14176 8.76606 4.83594C9.30229 4.53012 9.90986 4.37156 10.5271 4.37634C11.1444 4.38113 11.7495 4.5491 12.2809 4.8632C12.8123 5.1773 13.2512 5.62637 13.5531 6.16484C13.8549 6.70332 14.009 7.31205 13.9996 7.92929C13.9902 8.54652 13.8178 9.15031 13.4998 9.67939C13.1818 10.2085 12.7294 10.644 12.1888 10.9419Z" fill="url(#paint0_linear_503_11)"/>
<defs>
<linearGradient id="paint0_linear_503_11" x1="9.65625" y1="-14.49" x2="39.2696" y2="10.2706" gradientUnits="userSpaceOnUse">
<stop stop-color="rgba(216, 104, 56, 0.9)"/>
<stop offset="1" stop-color="rgba(255, 157, 53, 0.9)"/>
</linearGradient>
</defs>
</svg>
