<svg xmlns="http://www.w3.org/2000/svg" xml:space="preserve" width="512px" height="512px" version="1.1" style="shape-rendering:geometricPrecision; text-rendering:geometricPrecision; image-rendering:optimizeQuality; fill-rule:evenodd; clip-rule:evenodd" viewBox="0 0 512 512" xmlns:xlink="http://www.w3.org/1999/xlink">
 <defs>
  <style type="text/css">
   
    .fil0 {fill:black}
   
  </style>
 </defs>
 <g id="Layer_x0020_1">
  <metadata id="CorelCorpID_0Corel-Layer"></metadata>
  <g id="_426779112">
   <path class="fil0" d="M359 512c-3,0 -5,-1 -6,-4l-72 -124c6,1 12,-1 17,-6l24 -22 32 -2c7,-1 14,-6 17,-13l13 -30 26 -15 78 134c2,3 1,6 -1,8 -2,3 -5,3 -7,2l-96 -36 -18 102c-1,3 -3,5 -6,6 0,0 -1,0 -1,0z" id="id_101" style="fill: rgb(230, 131, 18);"></path>
   <path class="fil0" d="M153 512c0,0 -1,0 -1,0 -3,-1 -5,-3 -6,-6l-18 -101 -96 36c-2,1 -5,0 -7,-2 -2,-3 -3,-6 -1,-8l73 -127 11 7 14 30c3,7 9,12 17,13l32 2 24 22c3,4 9,6 14,6 2,0 5,0 7,-1l20 -7 -77 133c-1,2 -4,3 -6,3z" id="id_102" style="fill: rgb(237, 135, 19);"></path>
  </g>
  <path class="fil0" d="M209 370c-2,0 -4,-1 -5,-2l-27 -25 -37 -3c-2,0 -5,-2 -6,-4l-15 -35 -31 -18c-3,-1 -4,-3 -4,-6l0 -38 -23 -29c-1,-2 -1,-5 0,-7l16 -34 -9 -36c0,-3 0,-6 2,-7l29 -25 7 -35c1,-3 2,-5 5,-6l35 -11 21 -30c2,-2 4,-3 7,-3l36 4 32 -19c3,-1 5,-1 7,0l32 19 38 -4c3,0 5,1 7,3l20 30 36 11c2,1 4,3 5,6l7 35 28 25c2,1 3,4 3,7l-9 36 15 34c1,3 1,5 -1,7l-21 29 0 38c0,2 -1,5 -4,6l-32 18 -15 35c-1,2 -3,4 -6,4l-36 3 -27 25c-2,2 -5,2 -7,2l-36 -13 -35 13c0,0 -1,0 -2,0zm37 -71c-30,0 -58,-12 -80,-33 -21,-22 -33,-51 -33,-81 0,-62 51,-113 113,-113 30,0 59,12 80,33 22,21 34,50 34,80 0,63 -51,114 -114,114zm0 -213c-55,0 -99,44 -99,99 0,55 44,100 99,100 55,0 100,-45 100,-100 0,-55 -45,-99 -100,-99zm47 178c-1,0 -2,0 -3,-1l-44 -24 -43 24c-2,1 -5,1 -7,0 -2,-2 -3,-5 -3,-7l9 -49 -36 -34c-2,-2 -3,-5 -2,-7 1,-3 3,-5 6,-5l49 -6 21 -45c1,-2 3,-4 6,-4 0,0 0,0 0,0 3,0 5,1 6,4l22 45 49 6c3,0 5,2 6,5 0,2 0,5 -2,7l-36 34 9 49c0,2 -1,5 -3,7 -1,1 -3,1 -4,1zm-47 -40c1,0 2,0 3,1l34 19 -7 -38c0,-2 0,-4 2,-6l29 -27 -39 -5c-2,0 -4,-2 -5,-4l-17 -34 -16 34c-1,2 -3,4 -5,4l-39 5 29 27c2,2 2,4 2,6l-7 37 33 -18c1,-1 2,-1 3,-1zm-22 -63l0 0 0 0zm22 164c-37,0 -72,-15 -99,-41 -26,-27 -41,-62 -41,-99 0,-37 15,-72 41,-99 27,-26 62,-41 99,-41 77,0 140,63 140,140 0,77 -63,140 -140,140zm0 -266c-70,0 -126,56 -126,126 0,69 56,126 126,126 69,0 126,-57 126,-126 0,-70 -57,-126 -126,-126z" id="id_103" style="fill: rgb(235, 136, 23);"></path>
 </g>
</svg>