<svg version="1.1" id="Layer_1" xmlns="http://www.w3.org/2000/svg" xmlns:xlink="http://www.w3.org/1999/xlink" x="0px" y="0px" viewBox="0 0 64 64" style="enable-background:new 0 0 64 64;" xml:space="preserve">
<path d="M59.6748047,2.5h-0.25c-1.1315918,0-2.0689087,0.8226318-2.2593384,1.8999023H6.8345337
	C6.644104,3.3226318,5.7067871,2.5,4.5751953,2.5h-0.25c-1.2685547,0-2.2998047,1.0317383-2.2998047,2.2998047v5
	c0,1.2685547,1.03125,2.300293,2.2998047,2.300293h0.25c1.0476074,0,1.9234009-0.7078247,2.2001953-1.6674194v1.6171265v45.7416992
	c0,2.0449219,1.6630859,3.7084961,3.7080078,3.7084961h0.5205078c1.0717773,0,2.0309448-0.4639893,2.7087402-1.1932983
	C14.3901978,61.0360107,15.3491211,61.5,16.4208984,61.5h0.5205078c1.0717773,0,2.0309448-0.4639893,2.7087402-1.1932983
	C20.3276978,61.0360107,21.2866211,61.5,22.3583984,61.5h0.5205078c1.0717773,0,2.0309448-0.4639893,2.7087402-1.1932983
	C26.2651978,61.0360107,27.2241211,61.5,28.2958984,61.5h0.5205078c2.0449219,0,3.7089844-1.6635742,3.7089844-3.7084961v-1.9916992
	h26.5498047c0.5527344,0,1-0.4477539,1-1V13.9501953c0-0.5522461-0.4472656-1-1-1H32.5253906v-0.9003906v-1.8496094h24.6400757
	c0.1906128,1.0775757,1.1278687,1.8999023,2.2593384,1.8999023h0.25c1.2685547,0,2.2998047-1.0317383,2.2998047-2.300293v-5
	C61.9746094,3.5317383,60.9433594,2.5,59.6748047,2.5z M31.5253906,8.2001953h-5.9375h-5.9375h-5.9375h-5.9375H6.875v-1.800293
	h50.25v1.800293H31.5253906z M24.5878906,11.0498047h-3.9375v-0.8496094h3.9375V11.0498047z M8.7753906,10.2001953h3.9375v0.8496094
	h-3.9375V10.2001953z M14.7128906,10.2001953h3.9375v0.8496094h-3.9375V10.2001953z M4.875,9.7998047
	c0,0.1655273-0.1347656,0.300293-0.2998047,0.300293h-0.25c-0.1650391,0-0.2998047-0.1347656-0.2998047-0.300293v-5
	C4.0253906,4.6342773,4.1601562,4.5,4.3251953,4.5h0.25C4.7402344,4.5,4.875,4.6342773,4.875,4.7998047V9.7998047z M11.0039062,59.5
	h-0.5205078c-0.9414062,0-1.7080078-0.7666016-1.7080078-1.7084961V13.0498047h3.9375v44.7416992
	C12.7128906,58.7333984,11.9462891,59.5,11.0039062,59.5z M16.9414062,59.5h-0.5205078
	c-0.9414062,0-1.7080078-0.7666016-1.7080078-1.7084961V13.0498047h3.9375v44.7416992
	C18.6503906,58.7333984,17.8837891,59.5,16.9414062,59.5z M22.8789062,59.5h-0.5205078
	c-0.9414062,0-1.7080078-0.7666016-1.7080078-1.7084961V13.0498047h3.9375v44.7416992
	C24.5878906,58.7333984,23.8212891,59.5,22.8789062,59.5z M30.5253906,57.7915039
	c0,0.9418945-0.7666016,1.7084961-1.7089844,1.7084961h-0.5205078c-0.9414062,0-1.7080078-0.7666016-1.7080078-1.7084961V13.0498047
	h3.9375v0.9003906v2.8496094v35.1503906v2.8496094V57.7915039z M50.4554443,35.2884521
	c0.1634521,0.3295898,0.4951172,0.5616455,0.8883057,0.5616455c0.5527344,0,1-0.4477539,1-1v-1.3615112l1.9316406-1.8411865
	v19.3027954H34.0241699L50.4554443,35.2884521z M54.2753906,28.8839111L52.34375,30.7250977v-0.625c0-0.5522461-0.4472656-1-1-1
	s-1,0.4477539-1,1v2.5313721L32.5253906,49.6152954v-8.6387329l21.75-21.7504272V28.8839111z M32.5253906,38.1483765V17.7998047
	h20.3482056L32.5253906,38.1483765z M58.0751953,14.9501953v38.8496094H32.5253906v-0.8496094h22.75c0.5527344,0,1-0.4477539,1-1
	V16.8362427c0.0043945-0.144104-0.0200806-0.2870483-0.0777588-0.421875
	c-0.0286865-0.0685425-0.0786133-0.1226807-0.1210938-0.1824341c-0.0313721-0.0435791-0.0490723-0.0936279-0.0882568-0.1328125
	c-0.0006714-0.0006714-0.0016479-0.0009155-0.0023193-0.0015869c-0.1812134-0.1834106-0.4320679-0.2977295-0.7105713-0.2977295
	h-22.75v-0.8496094H58.0751953z M30.5253906,11.0498047h-3.9375v-0.8496094h3.9375V11.0498047z M59.9746094,9.7998047
	c0,0.1655273-0.1347656,0.300293-0.2998047,0.300293h-0.25c-0.1650391,0-0.2998047-0.1347656-0.2998047-0.300293v-5
	C59.125,4.6342773,59.2597656,4.5,59.4248047,4.5h0.25c0.1650391,0,0.2998047,0.1342773,0.2998047,0.2998047V9.7998047z" id="id_101" style="fill: rgb(239, 127, 26);"></path>
</svg>